[SERVER] Dashboard running at http://localhost:3000
[SERVER] Fetching channel: https://www.youtube.com/channel/UCTzj4kZC8eIHXumXZdBuvkQ/videos
[AGENT] Fetching videos for: https://www.youtube.com/channel/UCTzj4kZC8eIHXumXZdBuvkQ/videos
[SERVER] Analyzing hooks for: https://www.youtube.com/watch?v=ptN6x9jnYi8
[AGENT] Fetching transcript for: https://www.youtube.com/watch?v=ptN6x9jnYi8
[AGENT] ✅ Forced Cookie Bridge: /home/ubuntu/capcut-agent/media/cookies.txt
[SERVER] Creating vertical clip for: https://www.youtube.com/watch?v=ptN6x9jnYi8 at 10s
[AGENT] Creating clip at 10s for https://www.youtube.com/watch?v=ptN6x9jnYi8
[AGENT] ✅ Forced Cookie Bridge: /home/ubuntu/capcut-agent/media/cookies.txt
Input #0, mov,mp4,m4a,3gp,3g2,mj2, from 'https://rr1---sn-aigl6nzr.googlevideo.com/videoplayback?expire=1775607563&ei=q0rVaeaHBLSIzPsPl-GqsA0&ip=35.178.109.32&id=o-AEcRZ91TgkZtyvXzECJDtMA_hHsNe6A6ROwcCaJtL33j&itag=137&aitags=134%2C136%2C137%2C160%2C243&source=youtube&requiressl=yes&xpc=EgVo2aDSNQ%3D%3D&cps=340&met=1775585963%2C&mh=EV&mm=31%2C29&mn=sn-aigl6nzr%2Csn-aigzrn7l&ms=au%2Crdu&mv=u&mvi=1&pl=24&rms=au%2Cau&siu=1&bui=AUUZDGKsoUWaptQE9TraWbMG24zhS9qonxbf59tW-I4M2dEbgHh9gy-dOQt2vnom1S7AbclfSg&vprv=1&svpuc=1&mime=video%2Fmp4&ns=tmc97pNmOTBjpzDiMQqcH_sU&rqh=1&gir=yes&clen=11293844&dur=49.333&lmt=1767640284198217&mt=1775585598&fvip=2&keepalive=yes&lmw=1&fexp=51565116%2C51565681%2C51869321&c=TVHTML5&sefc=1&txp=6209224&n=10kPWc1QgltO-w&sparams=expire%2Cei%2Cip%2Cid%2Caitags%2Csource%2Crequiressl%2Cxpc%2Csiu%2Cbui%2Cvprv%2Csvpuc%2Cmime%2Cns%2Crqh%2Cgir%2Cclen%2Cdur%2Clmt&sig=AHEqNM4wRQIhAKeW_oY-S2uQIS8ymoN8rMZ_ymjejPGZE5-u6vCtdSxkAiBtS1QHvV82dkMfORbgi6GivCmVZO6aeqNCHu6Nm6RlmA%3D%3D&lsparams=cps%2Cmet%2Cmh%2Cmm%2Cmn%2Cms%2Cmv%2Cmvi%2Cpl%2Crms&lsig=APaTxxMwRQIgFodK01YIxBlXY7tQtbGUvafdsVatk_OiUpWryXtL4ewCIQCgeiLIiKOuGuVSj_VT9WIvRBR1oCPu6xz56AF5Yue8GQ%3D%3D':
  Metadata:
    major_brand     : dash
    minor_version   : 0
    compatible_brands: iso6avc1mp41
    creation_time   : 2026-01-05T19:11:18.000000Z
  Duration: 00:00:49.33, start: 0.000000, bitrate: 1831 kb/s
  Stream #0:0[0x1](und): Video: h264 (High) (avc1 / 0x31637661), yuv420p(tv, bt709, progressive), 1920x1080 [SAR 1:1 DAR 16:9], 209 kb/s, 30 fps, 30 tbr, 15360 tbn (default)
    Metadata:
      creation_time   : 2026-01-05T19:11:18.000000Z
      handler_name    : ISO Media file produced by Google Inc.
      vendor_id       : [0][0][0][0]
Input #1, mov,mp4,m4a,3gp,3g2,mj2, from 'https://rr1---sn-aigl6nzr.googlevideo.com/videoplayback?expire=1775607563&ei=q0rVaeaHBLSIzPsPl-GqsA0&ip=35.178.109.32&id=o-AEcRZ91TgkZtyvXzECJDtMA_hHsNe6A6ROwcCaJtL33j&itag=140&source=youtube&requiressl=yes&xpc=EgVo2aDSNQ%3D%3D&cps=340&met=1775585963%2C&mh=EV&mm=31%2C29&mn=sn-aigl6nzr%2Csn-aigzrn7l&ms=au%2Crdu&mv=u&mvi=1&pl=24&rms=au%2Cau&siu=1&bui=AUUZDGKsoUWaptQE9TraWbMG24zhS9qonxbf59tW-I4M2dEbgHh9gy-dOQt2vnom1S7AbclfSg&vprv=1&svpuc=1&mime=audio%2Fmp4&ns=tmc97pNmOTBjpzDiMQqcH_sU&rqh=1&gir=yes&clen=800430&dur=49.388&lmt=1767640277960842&mt=1775585598&fvip=2&keepalive=yes&lmw=1&fexp=51565116%2C51565681%2C51869321&c=TVHTML5&sefc=1&txp=6208224&n=10kPWc1QgltO-w&sparams=expire%2Cei%2Cip%2Cid%2Citag%2Csource%2Crequiressl%2Cxpc%2Csiu%2Cbui%2Cvprv%2Csvpuc%2Cmime%2Cns%2Crqh%2Cgir%2Cclen%2Cdur%2Clmt&sig=AHEqNM4wRAIgTP5rIE7A7i0lLCHs10jCuHkfa0Mli45eZMppgVImUZoCIHYkVcmd_uEenKhbgeM8oim9XkCw71UOYHjv8bztl2w-&lsparams=cps%2Cmet%2Cmh%2Cmm%2Cmn%2Cms%2Cmv%2Cmvi%2Cpl%2Crms&lsig=APaTxxMwRQIgFodK01YIxBlXY7tQtbGUvafdsVatk_OiUpWryXtL4ewCIQCgeiLIiKOuGuVSj_VT9WIvRBR1oCPu6xz56AF5Yue8GQ%3D%3D':
  Metadata:
    major_brand     : dash
    minor_version   : 0
    compatible_brands: iso6mp41
    creation_time   : 2026-01-05T19:11:17.000000Z
    encoder         : Google
  Duration: 00:00:49.39, start: 0.000000, bitrate: 129 kb/s
  Stream #1:0[0x1](eng): Audio: aac (LC) (mp4a / 0x6134706D), 44100 Hz, stereo, fltp, 25 kb/s (default)
    Metadata:
      creation_time   : 2026-01-05T19:11:17.000000Z
      handler_name    : ISO Media file produced by Google Inc.
      vendor_id       : [0][0][0][0]
Output #0, mp4, to 'file:/home/ubuntu/capcut-agent/media/temp/raw_1775585960021.mp4.part':
  Metadata:
    major_brand     : dash
    minor_version   : 0
    compatible_brands: iso6avc1mp41
    encoder         : Lavf60.16.100
  Stream #0:0(und): Video: h264 (High) (avc1 / 0x31637661), yuv420p(tv, bt709, progressive), 1920x1080 [SAR 1:1 DAR 16:9], q=2-31, 209 kb/s, 30 fps, 30 tbr, 15360 tbn (default)
    Metadata:
      creation_time   : 2026-01-05T19:11:18.000000Z
      handler_name    : ISO Media file produced by Google Inc.
      vendor_id       : [0][0][0][0]
  Stream #0:1(eng): Audio: aac (LC) (mp4a / 0x6134706D), 44100 Hz, stereo, fltp, 25 kb/s (default)
    Metadata:
      creation_time   : 2026-01-05T19:11:17.000000Z
      handler_name    : ISO Media file produced by Google Inc.
      vendor_id       : [0][0][0][0]
Stream mapping:
  Stream #0:0 -> #0:0 (copy)
  Stream #1:0 -> #0:1 (copy)
Press [q] to stop, [?] for help
size=       0kB time=-00:00:04.03 bitrate=  -0.0kbits/s speed=N/A    [out#0/mp4 @ 0x58faad72b0c0] video:2003kB audio:78kB subtitle:0kB other streams:0kB global headers:0kB muxing overhead: 0.362640%
size=    2089kB time=00:00:04.97 bitrate=3438.4kbits/s speed=47.1x    
ffmpeg version 6.1.1-3ubuntu5 Copyright (c) 2000-2023 the FFmpeg developers
  built with gcc 13 (Ubuntu 13.2.0-23ubuntu3)
  configuration: --prefix=/usr --extra-version=3ubuntu5 --toolchain=hardened --libdir=/usr/lib/x86_64-linux-gnu --incdir=/usr/include/x86_64-linux-gnu --arch=amd64 --enable-gpl --disable-stripping --disable-omx --enable-gnutls --enable-libaom --enable-libass --enable-libbs2b --enable-libcaca --enable-libcdio --enable-libcodec2 --enable-libdav1d --enable-libflite --enable-libfontconfig --enable-libfreetype --enable-libfribidi --enable-libglslang --enable-libgme --enable-libgsm --enable-libharfbuzz --enable-libmp3lame --enable-libmysofa --enable-libopenjpeg --enable-libopenmpt --enable-libopus --enable-librubberband --enable-libshine --enable-libsnappy --enable-libsoxr --enable-libspeex --enable-libtheora --enable-libtwolame --enable-libvidstab --enable-libvorbis --enable-libvpx --enable-libwebp --enable-libx265 --enable-libxml2 --enable-libxvid --enable-libzimg --enable-openal --enable-opencl --enable-opengl --disable-sndio --enable-libvpl --disable-libmfx --enable-libdc1394 --enable-libdrm --enable-libiec61883 --enable-chromaprint --enable-frei0r --enable-ladspa --enable-libbluray --enable-libjack --enable-libpulse --enable-librabbitmq --enable-librist --enable-libsrt --enable-libssh --enable-libsvtav1 --enable-libx264 --enable-libzmq --enable-libzvbi --enable-lv2 --enable-sdl2 --enable-libplacebo --enable-librav1e --enable-pocketsphinx --enable-librsvg --enable-libjxl --enable-shared
  libavutil      58. 29.100 / 58. 29.100
  libavcodec     60. 31.102 / 60. 31.102
  libavformat    60. 16.100 / 60. 16.100
  libavdevice    60.  3.100 / 60.  3.100
  libavfilter     9. 12.100 /  9. 12.100
  libswscale      7.  5.100 /  7.  5.100
  libswresample   4. 12.100 /  4. 12.100
  libpostproc    57.  3.100 / 57.  3.100
Input #0, mov,mp4,m4a,3gp,3g2,mj2, from '/home/ubuntu/capcut-agent/media/temp/raw_1775585960021.mp4':
  Metadata:
    major_brand     : isom
    minor_version   : 512
    compatible_brands: isomiso2avc1mp41
    encoder         : Lavf60.16.100
  Duration: 00:00:05.03, start: 0.000000, bitrate: 3399 kb/s
  Stream #0:0[0x1](und): Video: h264 (High) (avc1 / 0x31637661), yuv420p(tv, bt709, progressive), 1920x1080 [SAR 1:1 DAR 16:9], 1816 kb/s, 30 fps, 30 tbr, 15360 tbn (default)
    Metadata:
      handler_name    : ISO Media file produced by Google Inc.
      vendor_id       : [0][0][0][0]
  Stream #0:1[0x2](eng): Audio: aac (LC) (mp4a / 0x6134706D), 44100 Hz, stereo, fltp, 127 kb/s (default)
    Metadata:
      handler_name    : ISO Media file produced by Google Inc.
      vendor_id       : [0][0][0][0]
Stream mapping:
  Stream #0:0 -> #0:0 (h264 (native) -> h264 (libx264))
  Stream #0:1 -> #0:1 (copy)
Press [q] to stop, [?] for help
[h264 @ 0x58e9743fac00] Late SEI is not implemented. Update your FFmpeg version to the newest one from Git. If the problem still occurs, it means that your file has a feature which has not been implemented.
[h264 @ 0x58e9743fac00] If you want to help, upload a sample of this file to https://streams.videolan.org/upload/ and contact the ffmpeg-devel mailing list. (ffmpeg-devel@ffmpeg.org)
[libx264 @ 0x58e974452340] using SAR=1/1
[libx264 @ 0x58e974452340] using cpu capabilities: MMX2 SSE2Fast SSSE3 SSE4.2 AVX FMA3 BMI2 AVX2 AVX512
[libx264 @ 0x58e974452340] profile Constrained Baseline, level 3.1, 4:2:0, 8-bit
[libx264 @ 0x58e974452340] 264 - core 164 r3108 31e19f9 - H.264/MPEG-4 AVC codec - Copyleft 2003-2023 - http://www.videolan.org/x264.html - options: cabac=0 ref=1 deblock=0:0:0 analyse=0:0 me=dia subme=0 psy=1 psy_rd=1.00:0.00 mixed_ref=0 me_range=16 chroma_me=1 trellis=0 8x8dct=0 cqm=0 deadzone=21,11 fast_pskip=1 chroma_qp_offset=0 threads=3 lookahead_threads=1 sliced_threads=0 nr=0 decimate=1 interlaced=0 bluray_compat=0 constrained_intra=0 bframes=0 weightp=0 keyint=250 keyint_min=25 scenecut=0 intra_refresh=0 rc=crf mbtree=0 crf=23.0 qcomp=0.60 qpmin=0 qpmax=69 qpstep=4 ip_ratio=1.40 aq=0
Output #0, mp4, to '/home/ubuntu/capcut-agent/output/clip_1775585960021_916.mp4':
  Metadata:
    major_brand     : isom
    minor_version   : 512
    compatible_brands: isomiso2avc1mp41
    encoder         : Lavf60.16.100
  Stream #0:0(und): Video: h264 (avc1 / 0x31637661), yuv420p(tv, bt709, progressive), 608x1080 [SAR 1:1 DAR 76:135], q=2-31, 30 fps, 15360 tbn (default)
    Metadata:
      handler_name    : ISO Media file produced by Google Inc.
      vendor_id       : [0][0][0][0]
      encoder         : Lavc60.31.102 libx264
    Side data:
      cpb: bitrate max/min/avg: 0/0/0 buffer size: 0 vbv_delay: N/A
  Stream #0:1(eng): Audio: aac (LC) (mp4a / 0x6134706D), 44100 Hz, stereo, fltp, 127 kb/s (default)
    Metadata:
      handler_name    : ISO Media file produced by Google Inc.
      vendor_id       : [0][0][0][0]
frame=    0 fps=0.0 q=0.0 size=       0kB time=00:00:00.05 bitrate=   7.1kbits/s speed=0.0883x    frame=   50 fps= 44 q=23.0 size=     512kB time=00:00:01.88 bitrate=2221.0kbits/s speed=1.68x    [h264 @ 0x58e9743fac00] Late SEI is not implemented. Update your FFmpeg version to the newest one from Git. If the problem still occurs, it means that your file has a feature which has not been implemented.
[h264 @ 0x58e9743fac00] If you want to help, upload a sample of this file to https://streams.videolan.org/upload/ and contact the ffmpeg-devel mailing list. (ffmpeg-devel@ffmpeg.org)
frame=  109 fps= 67 q=23.0 size=    1536kB time=00:00:03.81 bitrate=3297.6kbits/s speed=2.34x    [out#0/mp4 @ 0x58e9743a28c0] video:2030kB audio:78kB subtitle:0kB other streams:0kB global headers:0kB muxing overhead: 0.265734%
frame=  151 fps= 78 q=-1.0 Lsize=    2114kB time=00:00:05.00 bitrate=3463.5kbits/s speed=2.57x    
[libx264 @ 0x58e974452340] frame I:1     Avg QP:20.00  size: 56869
[libx264 @ 0x58e974452340] frame P:150   Avg QP:22.89  size: 13475
[libx264 @ 0x58e974452340] mb I  I16..4: 100.0%  0.0%  0.0%
[libx264 @ 0x58e974452340] mb P  I16..4:  7.2%  0.0%  0.0%  P16..4: 48.1%  0.0%  0.0%  0.0%  0.0%    skip:44.7%
[libx264 @ 0x58e974452340] coded y,uvDC,uvAC intra: 28.6% 38.4% 5.7% inter: 22.3% 15.0% 0.0%
[libx264 @ 0x58e974452340] i16 v,h,dc,p: 25% 25% 22% 28%
[libx264 @ 0x58e974452340] i8c dc,h,v,p: 37% 28% 21% 14%
[libx264 @ 0x58e974452340] kb/s:3302.94
